<?xml version="1.0" encoding="UTF-8"?>
<!DOCTYPE svg PUBLIC "-//W3C//DTD SVG 1.1//EN" "http://www.w3.org/Graphics/SVG/1.1/DTD/svg11.dtd">
<!-- Creator: CorelDRAW -->
<svg xmlns="http://www.w3.org/2000/svg" xml:space="preserve" width="32mm" height="65mm" version="1.1" style="shape-rendering:geometricPrecision; text-rendering:geometricPrecision; image-rendering:optimizeQuality; fill-rule:evenodd; clip-rule:evenodd"
viewBox="0 0 3200 6500"
 xmlns:xlink="http://www.w3.org/1999/xlink"
 xmlns:xodm="http://www.corel.com/coreldraw/odm/2003">
 <defs>
  <style type="text/css">
   <![CDATA[
    .fil1 {fill:#F62D02}
    .fil0 {fill:#FD4A01}
    .fil2 {fill:#FE7402}
    .fil3 {fill:#FE9403}
    .fil4 {fill:url(#id0)}
   ]]>
  </style>
  <linearGradient id="id0" gradientUnits="userSpaceOnUse" x1="1691.78" y1="5987.86" x2="1691.79" y2="1719.65">
   <stop offset="0" style="stop-opacity:1; stop-color:#FE9403"/>
   <stop offset="0.419608" style="stop-opacity:1; stop-color:#FA6103"/>
   <stop offset="1" style="stop-opacity:1; stop-color:#F62D02"/>
  </linearGradient>
 </defs>
 <g id="Layer_x0020_1">
  <metadata id="CorelCorpID_0Corel-Layer"/>
  <image x="19349.27" y="-18287.76" width="44238.34" height="44238.34" xlink:href="fire_Images\fire_ImgID1.png"/>
  <path class="fil0" d="M92794.87 -3501.34c-106.25,77.63 -456.65,606.82 -568.41,762.68 -984.85,1373.46 -1908.05,2739.17 -2376.05,4430.39 -264.17,954.65 -218.63,1441.77 -244.63,2420.25 70.38,-58.16 55.94,116.89 58.14,-108.93 1.83,-346.51 -63.64,-467.19 124.15,-653.01 68.26,-67.55 64.59,-115.77 71.67,23.81 77.08,-28.53 41.16,-29.8 68.23,-47.82l391.25 -176.98c65.46,-38.92 149.39,-92.42 336.3,-9.36 112.28,49.89 74.32,-12.81 284.29,-18.69 342.54,-9.59 213.36,19.06 293.26,-202.4l112.32 67.24c74.8,28.97 91.09,31.58 188.27,38.63 13.98,-170.08 -2.63,-105.2 176.34,-70.61 -8.97,-123.8 -25.98,-94.36 -9.16,-140.71 77.64,39.61 151.02,37.81 266.58,53.57 163.55,22.31 147.14,59.21 214.87,-56.62 -1.35,260.61 -6.43,75.15 61.95,147.77 125.51,-924.42 878.77,-2390.14 1291.4,-3080.52 283.11,-473.66 542.71,-891.9 833.44,-1354.3l864.71 -1363.89c-8,-6.17 -18.46,-15.36 -23.65,-18.94 -4.93,-3.4 -17.94,-13.23 -23.33,-16.81l-204.23 173.8 -597.75 1.09 0.27 -178.95c-195.82,13.75 -66.18,30.14 -252.06,2.45 -420.41,-62.61 -384.45,54.3 -559.53,-75.09 -3.86,-2.86 -17.75,-4.82 -20.61,-15.61 -2.98,-11.19 -13.24,-12.73 -21.59,-15.93 -40.22,105.19 11.24,-34.15 -16.21,62.77 -6.11,21.57 -5.04,23.91 -15.09,43.56 -152.27,-15.54 -68.87,-16.36 -187.76,-8.86 -82,5.18 -151.24,9.33 -235.57,10.06 0.72,-484.67 -156.13,-462.82 0.78,-525.74 -16.28,-144.72 56.84,-91.54 -123.04,-118.06 -83.1,-12.25 -42.41,-4.54 -159.55,19.76z"/>
  <path class="fil1" d="M92794.87 -3501.34c117.14,-24.3 76.45,-32.01 159.55,-19.76 179.88,26.52 106.76,-26.66 123.04,118.06 -156.91,62.92 -0.06,41.07 -0.78,525.74 84.33,-0.73 153.57,-4.88 235.57,-10.06 118.89,-7.5 35.49,-6.68 187.76,8.86 10.05,-19.65 8.98,-21.99 15.09,-43.56 27.45,-96.92 -24.01,42.42 16.21,-62.77 8.35,3.2 18.61,4.74 21.59,15.93 2.86,10.79 16.75,12.75 20.61,15.61 175.08,129.39 139.12,12.48 559.53,75.09 185.88,27.69 56.24,11.3 252.06,-2.45l-0.27 178.95 597.75 -1.09 204.23 -173.8c5.39,3.58 18.4,13.41 23.33,16.81 5.19,3.58 15.65,12.77 23.65,18.94 819.9,-1443.12 1591.77,-2952.72 1568.88,-5009.45 -15.82,-1421.42 -622.25,-3164.84 -1521.31,-4215.63 -85.62,-100.08 -267.31,-384.43 -389.24,-429.92 260.23,806.21 511.79,1536.33 532.7,2464.12 22.32,990.63 -126.18,1743.54 -412.34,2635.31 -597.35,1861.58 -2051.41,3519.44 -2217.61,3895.07z"/>
  <path class="fil0" d="M95164.34 5102.78c78.2,-70.71 -5.56,-98.68 209.66,-115.41l2.17 314.09c74.92,-43.72 102.19,-79.4 207.86,-99.8l69.64 133.82c3.89,55.51 38.18,117.05 47.08,206.31l94.48 -194.39c5.34,-3.3 15.28,-7.64 20.93,-10.11l268.31 -37.33c10.73,45.41 21.33,98.03 41.91,137.33 53.52,102.22 66.43,78.49 107.97,92.67 159.91,54.56 151.19,-16.08 281.96,113.53 2.34,-166.89 -48.9,-199.1 -98.3,-309.96 153.76,26.91 84.44,41.14 183.49,80.1 119.8,47.13 50.17,-18.28 202.08,22.43 -26.98,-55.22 -65.5,-32.14 -104.21,-137.81 53.94,9.97 296.43,76.03 299.5,75.95 78.59,-1.82 32.74,-27.11 124.29,-45.87 111.67,-22.88 42.67,-73.43 103.73,37.99l0.98 -174.72c97.71,-1.97 136.74,-9.6 198.67,-22.54 150.03,-31.36 82.31,15.8 132.23,-67.66 54.48,-91.09 14.41,-320.85 -9.9,-392.8l76.28 -27.13c-301.81,-895.36 -2176.6,-2050.55 -2014.68,-4498.01l-521.12 539.86c-755.26,919.65 -1348.32,1926 -1684.2,3148.86 -235.02,855.66 -246.56,1751.03 -71.84,2628.47 105.85,531.58 337.81,1151.44 624.73,1595.29l259.42 380.23c38.16,42.75 20.07,25.72 60.52,57.64 -185.79,-901.23 -314.61,-1147.78 -123.25,-2183.47 120.32,-651.18 465.05,-1249.44 759.77,-1708.42l249.84 460.86z"/>
  <path class="fil0" d="M99240.75 5630.04c147.28,-174 0.65,-814.17 -15.72,-1033.21l116.95 197.25c3.76,7.25 7.44,16.98 11.1,24.33 107.98,217.31 -28.4,64.23 179.43,166.1 81.16,-133.29 -66.73,153.04 27.2,-70.93l46.77 -101.73c62.95,164.33 0.24,12.73 157.16,87.87 177.43,84.96 27.57,-17.01 116.68,156.65 78.32,-139.84 24.16,-47.8 112.97,-134.26 5.5,-5.36 344.51,-387.65 249.9,-138.72l-39.59 58.29c-27.08,55.6 -30.16,-58.96 -32.75,110.53 117.4,27.08 195.81,65.78 275.4,-179.05l38.94 215.86c19.03,-261.66 1.36,-53.37 62.35,-139.13 114.46,-792.97 -98.49,-1862.26 -390.62,-2532.98 -523.48,-1201.93 -1079.04,-1683.37 -1763.86,-2713.6 -445.57,-670.32 -694.24,-1514.09 -622.95,-2339.5 20.37,-235.8 41.26,-418.43 91.64,-649.73 29.8,-136.84 144.25,-499.5 142.11,-597.46 -614.41,554.43 -1058.48,1231.2 -1217.28,2101.12 -186.66,1022.5 47.98,1948.15 483.01,2751.55 804.79,1486.29 1981.74,2549.12 1971.16,4760.75z"/>
  <path class="fil2" d="M95164.34 5102.78c88.48,229.6 231.24,421.3 353.6,622.26 128.56,211.13 235.6,364.26 367.04,586.43 280.49,474.11 401.52,819.34 479.96,1435l31.82 66.5c19.64,60.35 17.08,27.96 28.74,104.19 6.03,39.36 2.83,136.31 0.16,178.5 -7.38,116.33 -19.94,219.77 -22.7,339.24 61.32,-212.17 8.69,-728.55 24.99,-832.48l27.61 -86.43c2.45,-6.65 7.62,-18.2 13.43,-26.06 49.66,106.74 34.51,96.8 34.18,247.01 423.81,87.31 286.59,144.71 545.72,59.26l462.28 -88.04c317.97,12.75 138.24,71.82 319.14,96.05 -27.85,-57.33 -79.11,-243.98 64.08,-270.13 8.61,-1.57 56.92,3.22 64.95,6.04 60.25,21.15 -11.8,-25.22 52.69,35.46l49.58 64.16c124.74,-553.26 179.69,-1050.06 74.63,-1634.09 -74.35,-413.33 -278.66,-1039.74 -511.09,-1324.18l-76.28 27.13c24.31,71.95 64.38,301.71 9.9,392.8 -49.92,83.46 17.8,36.3 -132.23,67.66 -61.93,12.94 -100.96,20.57 -198.67,22.54l-0.98 174.72c-61.06,-111.42 7.94,-60.87 -103.73,-37.99 -91.55,18.76 -45.7,44.05 -124.29,45.87 -3.07,0.08 -245.56,-65.98 -299.5,-75.95 38.71,105.67 77.23,82.59 104.21,137.81 -151.91,-40.71 -82.28,24.7 -202.08,-22.43 -99.05,-38.96 -29.73,-53.19 -183.49,-80.1 49.4,110.86 100.64,143.07 98.3,309.96 -130.77,-129.61 -122.05,-58.97 -281.96,-113.53 -41.54,-14.18 -54.45,9.55 -107.97,-92.67 -20.58,-39.3 -31.18,-91.92 -41.91,-137.33l-268.31 37.33c-5.65,2.47 -15.59,6.81 -20.93,10.11l-94.48 194.39c-8.9,-89.26 -43.19,-150.8 -47.08,-206.31l-69.64 -133.82c-105.67,20.4 -132.94,56.08 -207.86,99.8l-2.17 -314.09c-215.22,16.73 -131.46,44.7 -209.66,115.41z"/>
  <path class="fil2" d="M89798.44 5308.15c49.94,81.56 138.69,441.86 195.74,581.7 86.8,212.79 148.54,390.53 247.97,596.85 173.98,361.01 427.98,789.06 641.59,1044.19 199.38,-273.87 -9.69,-191 781.82,-190.68l85.9 138.87c46.22,-279.75 107.4,90.91 111.56,-244.69 309.83,62.69 -72.54,158.05 392.36,69.13 3.36,-0.65 28.54,-0.89 28.64,-0.83 0.62,-175.21 37.11,-164.72 47.51,-340.62 48.41,31.52 41.88,24.08 112.04,47.32 -37.78,-203.38 -121.07,-398.91 -177.59,-613.28 -54.69,-207.41 -93.28,-458.05 -130.59,-672.05 -78.94,-452.78 -120.64,-1011.82 -79.52,-1474.24 -25.83,279.29 46.78,656.88 -37.7,881.94 -133.64,-63.2 -13.43,85.84 -98.53,-138.18 -65.05,-171.24 30.65,46.43 -16.36,-57.68 -64.27,-142.33 -89.3,-40.98 -209.77,-41.13 -64.59,-0.09 -72.93,-51.1 -189.13,-17.62 -16.73,4.82 -50.88,35.82 -56.3,26.79 -5.38,-8.97 -19.12,11.85 -29.46,16.15 -20.2,-50.53 -43.51,-98.43 -70.73,-141.11l-185.77 101.43c-6.57,2.98 -16.52,8.03 -23.29,10.53l-125.89 23.07c-2.65,0.84 -10.78,5.7 -13.24,6.6 -65.53,24.05 -10.69,45.57 -91.52,6.29 -233.41,-113.45 66.42,-74.48 -195.12,-112.64 -30.69,74.81 -18.52,55.82 -141.28,141.11 1.74,-102.97 -0.6,-122.42 35.27,-176.39l-200.5 28.86c-371.42,133.26 -187.07,2.45 -404.04,77.04l-46.16 19.38c-191.5,76.6 -28.68,-90.12 -160.68,-195.83 0,299.54 101.02,386.15 105.83,670.27 -5.19,-8.65 -14.33,-19.83 -18.82,-23.71l-84.24 -46.84z"/>
  <path class="fil2" d="M89605.78 4111.98c40.6,437.06 138.77,796.99 192.66,1196.17l84.24 46.84c4.49,3.88 13.63,15.06 18.82,23.71 -4.81,-284.12 -105.83,-370.73 -105.83,-670.27 132,105.71 -30.82,272.43 160.68,195.83l46.16 -19.38c216.97,-74.59 32.62,56.22 404.04,-77.04l200.5 -28.86c-35.87,53.97 -33.53,73.42 -35.27,176.39 122.76,-85.29 110.59,-66.3 141.28,-141.11 261.54,38.16 -38.29,-0.81 195.12,112.64 80.83,39.28 25.99,17.76 91.52,-6.29 2.46,-0.9 10.59,-5.76 13.24,-6.6l125.89 -23.07c6.77,-2.5 16.72,-7.55 23.29,-10.53l185.77 -101.43c27.22,42.68 50.53,90.58 70.73,141.11 10.34,-4.3 24.08,-25.12 29.46,-16.15 5.42,9.03 39.57,-21.97 56.3,-26.79 116.2,-33.48 124.54,17.53 189.13,17.62 120.47,0.15 145.5,-101.2 209.77,41.13 47.01,104.11 -48.69,-113.56 16.36,57.68 85.1,224.02 -35.11,74.98 98.53,138.18 84.48,-225.06 11.87,-602.65 37.7,-881.94 23.15,-446.67 88.71,-866.91 188.37,-1291.95 -68.38,-72.62 -63.3,112.84 -61.95,-147.77 -67.73,115.83 -51.32,78.93 -214.87,56.62 -115.56,-15.76 -188.94,-13.96 -266.58,-53.57 -16.82,46.35 0.19,16.91 9.16,140.71 -178.97,-34.59 -162.36,-99.47 -176.34,70.61 -97.18,-7.05 -113.47,-9.66 -188.27,-38.63l-112.32 -67.24c-79.9,221.46 49.28,192.81 -293.26,202.4 -209.97,5.88 -172.01,68.58 -284.29,18.69 -186.91,-83.06 -270.84,-29.56 -336.3,9.36l-391.25 176.98c-27.07,18.02 8.85,19.29 -68.23,47.82 -7.08,-139.58 -3.41,-91.36 -71.67,-23.81 -187.79,185.82 -122.32,306.5 -124.15,653.01 -2.2,225.82 12.24,50.77 -58.14,108.93z"/>
  <path class="fil3" d="M90883.74 7530.89l235.29 299.89c45.11,52.25 46.92,64.62 90.74,120.94 185.54,238.5 740.84,745.87 996.7,943.16 83.34,64.26 131.89,103.97 219.41,168.19 341.93,250.9 1474.13,989.39 2009.32,1062.27 -89.55,-113.5 -187.05,-198.17 -289.97,-312.54 -583.67,-648.56 -892.07,-1067.43 -1311.26,-1899.57 -76.22,-151.3 -130.97,-276.69 -200.04,-434.94 -66.62,-152.63 -118.39,-323.77 -190.36,-468.9 -70.16,-23.24 -63.63,-15.8 -112.04,-47.32 -10.4,175.9 -46.89,165.41 -47.51,340.62 -0.1,-0.06 -25.28,0.18 -28.64,0.83 -464.9,88.92 -82.53,-6.44 -392.36,-69.13 -4.16,335.6 -65.34,-35.06 -111.56,244.69l-85.9 -138.87c-791.51,-0.32 -582.44,-83.19 -781.82,190.68z"/>
  <path class="fil2" d="M99240.75 5630.04c-24.63,1300.53 -384.78,2363.76 -933.77,3267.13 505.57,-319.56 1085.35,-1028.08 1463.07,-1656.01 411.18,-683.53 699.84,-1463.03 777.49,-2391.27 -60.99,85.76 -43.32,-122.53 -62.35,139.13l-38.94 -215.86c-79.59,244.83 -158,206.13 -275.4,179.05 2.59,-169.49 5.67,-54.93 32.75,-110.53l39.59 -58.29c94.61,-248.93 -244.4,133.36 -249.9,138.72 -88.81,86.46 -34.65,-5.58 -112.97,134.26 -89.11,-173.66 60.75,-71.69 -116.68,-156.65 -156.92,-75.14 -94.21,76.46 -157.16,-87.87l-46.77 101.73c-93.93,223.97 53.96,-62.36 -27.2,70.93 -207.83,-101.87 -71.45,51.21 -179.43,-166.1 -3.66,-7.35 -7.34,-17.08 -11.1,-24.33l-116.95 -197.25c16.37,219.04 163,859.21 15.72,1033.21z"/>
  <path class="fil3" d="M96364.94 7746.47c26.19,549.2 -36.66,1020.81 -213.07,1517.76 -163.78,461.39 -372.38,749.6 -558.4,1112.59 526.68,-195.14 1265.95,-754.62 1525.26,-1061.35 398.68,-471.61 699.45,-899.85 942.88,-1675.73l-49.58 -64.16c-64.49,-60.68 7.56,-14.31 -52.69,-35.46 -8.03,-2.82 -56.34,-7.61 -64.95,-6.04 -143.19,26.15 -91.93,212.8 -64.08,270.13 -180.9,-24.23 -1.17,-83.3 -319.14,-96.05l-462.28 88.04c-259.13,85.45 -121.91,28.05 -545.72,-59.26 0.33,-150.21 15.48,-140.27 -34.18,-247.01 -5.81,7.86 -10.98,19.41 -13.43,26.06l-27.61 86.43c-16.3,103.93 36.33,620.31 -24.99,832.48 2.76,-119.47 15.32,-222.91 22.7,-339.24 2.67,-42.19 5.87,-139.14 -0.16,-178.5 -11.66,-76.23 -9.1,-43.84 -28.74,-104.19l-31.82 -66.5z"/>
  <path class="fil4" d="M1982 4424.18c-180.24,-262.16 -253.49,-536.26 -242.42,-819.75 -170.49,180.99 -311.46,354.46 -429.88,564.5 -159.78,283.38 -254.35,596.95 -250.91,921.7 3.02,285.28 77.94,577.67 302.12,886.82 -85.57,-331.93 -109.69,-679.34 180.89,-1106.01 124.35,260.51 337.09,512.48 392.4,781.04 61.95,300.81 -19.69,584.13 -199.45,848.72 154.7,-92.11 282.37,-152.15 388.38,-254.95 314.12,-304.62 432.33,-687.88 307.45,-1100.12 -89.96,-296.99 -283.22,-481.42 -448.58,-721.95zm783.35 -661.91c-408.46,-534.03 -473.99,-929.42 -345.61,-1341.98 -424.26,446.1 -550.84,974.93 -36.57,1661.28 489.76,653.63 495.42,1317.76 122.71,1999.14 620.77,-617.77 995.63,-1355.95 259.47,-2318.44zm-1414.42 -572.54c681.57,-1027.1 1135.56,-2082 184.51,-3188.53 311.91,826.19 111.76,1616.34 -474.99,2375.3 -507.71,656.73 -863.89,1246.28 -996.66,1788.87 -100.47,410.65 -39.77,853.02 150.21,1230.33 273.6,543.38 668.35,860.47 1191.59,1034.03 -833.65,-871.95 -931.93,-1917.99 -54.66,-3240z"/>
 </g>
</svg>
