<?xml version="1.0" encoding="UTF-8"?>
<!DOCTYPE svg PUBLIC "-//W3C//DTD SVG 1.1//EN" "http://www.w3.org/Graphics/SVG/1.1/DTD/svg11.dtd">
<!-- Creator: CorelDRAW -->
<svg xmlns="http://www.w3.org/2000/svg" xml:space="preserve" width="210mm" height="297mm" version="1.1" style="shape-rendering:geometricPrecision; text-rendering:geometricPrecision; image-rendering:optimizeQuality; fill-rule:evenodd; clip-rule:evenodd"
viewBox="0 0 21000 29700"
 xmlns:xlink="http://www.w3.org/1999/xlink"
 xmlns:xodm="http://www.corel.com/coreldraw/odm/2003">
 <defs>
  <style type="text/css">
   <![CDATA[
    .fil0 {fill:url(#id0)}
   ]]>
  </style>
  <linearGradient id="id0" gradientUnits="userSpaceOnUse" x1="11595.45" y1="17493.64" x2="11556.57" y2="13935.01">
   <stop offset="0" style="stop-opacity:1; stop-color:#FE9403"/>
   <stop offset="1" style="stop-opacity:1; stop-color:red"/>
  </linearGradient>
 </defs>
 <g id="Layer_x0020_1">
  <metadata id="CorelCorpID_0Corel-Layer"/>
  <path class="fil0" d="M11233.39 14147.37c-446.7,348.62 -496.35,861.63 -136.4,1298.86 192.16,233.41 426.91,493.81 488.48,797.48 73.3,361.49 -90.47,683.88 -304.54,823.1 318.6,-951.01 -843.14,-1056.91 -745.47,-1882.73 -413.41,365.41 -894.01,1084.07 -711.26,1662.17 -824.33,-1156.04 854.43,-1884.56 1045.5,-3211.49 92.18,-640.25 -80.36,-1161.15 -543.71,-1605.32 181.64,411.11 213.5,831.6 43.97,1249.57 -347.61,857.07 -1272.26,1393.36 -1551.38,2367.66 -286.68,1000.67 414.36,1686.23 1647.34,1855.23 -40.19,-36.19 -79.87,-71.85 -118.84,-107.16 -252.13,-249.84 -348.98,-708.74 -14.56,-1101.38 60.31,377.41 354.51,489.16 422.95,772.42 55.54,229.93 -78.72,476.24 -261.4,605.85 595.34,-76.19 1481.85,-274.18 1702.76,-1055.68 126.29,-446.77 -116.42,-804.65 -410.52,-1118.01 -426.39,-454.31 -786.19,-659.92 -552.92,-1350.57z"/>
 </g>
</svg>
